<svg width="55" height="48" viewBox="0 0 55 48" fill="none" xmlns="http://www.w3.org/2000/svg">
<rect width="54.8801" height="48" rx="8" fill="#0E1014"/>
<rect x="8" y="6" width="10.0418" height="10.08" rx="1" fill="#9747FF"/>
<rect x="22.4927" y="6" width="10.0418" height="10.08" rx="1" fill="#9747FF"/>
<rect width="10.0418" height="10.08" rx="1" transform="matrix(1 0 0 -1 19.6236 42)" fill="#9747FF"/>
<rect width="10.0418" height="10.08" rx="1" transform="matrix(1 0 0 -1 34.1163 42)" fill="#9747FF"/>
<line y1="-0.5" x2="27.0366" y2="-0.5" transform="matrix(0.424476 0.905439 -0.904195 0.427121 12.451 11.76)" stroke="#9747FF"/>
<line y1="-0.5" x2="27.0366" y2="-0.5" transform="matrix(0.424476 0.905439 -0.904195 0.427121 26.9436 11.76)" stroke="#9747FF"/>
<rect x="13.4992" y="18.96" width="10.0418" height="10.08" rx="1" fill="#9747FF"/>
<rect x="27.9919" y="18.96" width="10.0418" height="10.08" rx="1" fill="#9747FF"/>
<rect x="36.8382" y="6" width="10.0418" height="10.08" rx="1" fill="#9747FF"/>
</svg>
